<svg xmlns="http://www.w3.org/2000/svg" viewBox="0 0 128 128" fill="none">
  <path d="M64 6c-23 0-42 18-42 40 0 31 32 68 42 80 10-12 42-49 42-80 0-22-19-40-42-40z" fill="#ff9969"/>
  <circle cx="64" cy="47" r="24" fill="#fff6f0"/>
  <g fill="#ff7f52">
    <ellipse cx="64" cy="35" rx="5" ry="8"/>
    <ellipse cx="74" cy="44" rx="5" ry="8" transform="rotate(35 74 44)"/>
    <ellipse cx="70" cy="57" rx="5" ry="8" transform="rotate(70 70 57)"/>
    <ellipse cx="58" cy="57" rx="5" ry="8" transform="rotate(110 58 57)"/>
    <ellipse cx="54" cy="44" rx="5" ry="8" transform="rotate(145 54 44)"/>
  </g>
  <circle cx="64" cy="47" r="3" fill="#ffd28a"/>
</svg>
